<?xml version="1.0" standalone="no"?><!DOCTYPE svg PUBLIC "-//W3C//DTD SVG 1.1//EN" "http://www.w3.org/Graphics/SVG/1.1/DTD/svg11.dtd"><svg id="oil_outer" viewBox="0 0 196 67" style="background-color:#ffffff00" version="1.1"	xmlns="http://www.w3.org/2000/svg" xmlns:xlink="http://www.w3.org/1999/xlink" xml:space="preserve"	x="0px" y="0px" width="196px" height="67px">	<g>		<path d="M 5.5 12.625 L 61 3 C 61 3 67.375 5.625 72 13 C 72.125 14.25 71 22 71 22 L 71 34 L 73 40 L 73 44 L 70 44 L 67.1563 46.2188 C 67.1563 46.2188 67.9375 49.625 64.375 52.125 C 61.6505 54.0369 57 52 57 52 C 57 52 49.125 58.875 47.25 60 C 42.75 60.875 17 64 17 64 L 13 56 C 13 56 10.375 55.125 9.875 54.375 C 9.125 54.875 5.5 52.125 5 42 C 5.25 41.25 5.25 40.625 7.875 39.625 C 8.125 38.875 8 37 8 37 L 5 37 C 5 37 2.875 36.875 3 32 C 3.5 31.25 4.5 31 4.5 31 C 4.5 31 3.75 26.125 4 21.5 C 5 20.375 6.25 21.25 6 21 C 5.75 20.75 5.5 12.625 5.5 12.625 Z" class="oil-color-stroke" stroke-width="3" fill="#000000"/>		<path d="M 5.5 12.625 L 61 3 C 61 3 67.375 5.625 72 13 C 72.125 14.25 71 22 71 22 L 71 34 L 73 40 L 73 44 L 70 44 L 67.1563 46.2188 C 67.1563 46.2188 67.9375 49.625 64.375 52.125 C 61.6505 54.0369 57 52 57 52 C 57 52 49.125 58.875 47.25 60 C 42.75 60.875 17 64 17 64 L 13 56 C 13 56 10.375 55.125 9.875 54.375 C 9.125 54.875 5.5 52.125 5 42 C 5.25 41.25 5.25 40.625 7.875 39.625 C 8.125 38.875 8 37 8 37 L 5 37 C 5 37 2.875 36.875 3 32 C 3.5 31.25 4.5 31 4.5 31 C 4.5 31 3.75 26.125 4 21.5 C 5 20.375 6.25 21.25 6 21 C 5.75 20.75 5.5 12.625 5.5 12.625 Z" stroke="#ffffff" stroke-width="1" fill="none"/>		<path id="Ellipse" opacity="0.502" d="M 9 50.5 C 8.4477 47.4624 8.8954 45 10 45 C 11.1046 45 12.4477 47.4624 13 50.5 C 13.5523 53.5376 13.1046 56 12 56 C 10.8954 56 9.5523 53.5376 9 50.5 Z" stroke="#ffffff" stroke-width="1" fill="none"/>		<path id="Ellipse2" opacity="0.502" d="M 4 29 C 3.4477 24.5817 3.8954 21 5 21 C 6.1046 21 7.4477 24.5817 8 29 C 8.5523 33.4183 8.1046 37 7 37 C 5.8954 37 4.5523 33.4183 4 29 Z" stroke="#ffffff" stroke-width="1" fill="none"/>		<path id="Ellipse3" opacity="0.502" d="M 5 47 C 4.4477 42.5817 4.8954 39 6 39 C 7.1046 39 8.4477 42.5817 9 47 C 9.5523 51.4183 9.1046 55 8 55 C 6.8954 55 5.5523 51.4183 5 47 Z" stroke="#ffffff" stroke-width="1" fill="none"/>		<path opacity="0.502" d="M 6 14 C 6 14 10.875 17.375 13 25 " stroke="#ffffff" stroke-width="1" fill="none"/>		<path opacity="0.502" d="M 11.5625 45.4375 L 37 40 C 37 40 40.6875 42.75 39 49 C 36.875 49.5 14 55 14 55 " stroke="#ffffff" stroke-width="1" fill="none"/>		<path d="M 15 58 L 54 49 " stroke="#ffffff" stroke-width="1" fill="none"/>		<path opacity="0.502" d="M 56 51 L 50 45 C 50 45 47.5 40.25 51.9375 37.4375 C 56.375 34.625 59.6875 36.8125 59.6875 36.8125 L 66.7188 45.1875 " stroke="#ffffff" stroke-width="1" fill="none"/>		<path opacity="0.502" d="M 13 25 L 13 44 " stroke="#ffffff" stroke-width="1" fill="none"/>		<path id="Ellipse4" opacity="0.502" d="M 17 19 C 17 17.8954 19.0147 17 21.5 17 C 23.9853 17 26 17.8954 26 19 C 26 20.1046 23.9853 21 21.5 21 C 19.0147 21 17 20.1046 17 19 Z" stroke="#ffffff" stroke-width="1" fill="#ffffff4c"/>		<path d="M 21 20 C 21 20 20.3438 16.9375 20 17 C 19.6563 17.0625 20 16 20 16 L 22 16 L 23 19 C 23 19 23.125 21.5313 23 21 " stroke="#ffffff" stroke-width="1" fill="#ffffff4c"/>		<path opacity="0.502" d="M 63 43 C 63 43 60.3903 42.1769 57.9375 43.875 C 55.0938 45.8438 56.8438 51.0625 56.5625 50.8125 " stroke="#ffffff" stroke-width="1" fill="none"/>		<path opacity="0.4" d="M 13.75 58.125 L 53 49 L 50 44 C 50 44 48.9075 38.8416 53 37 C 55.5 35.875 57.25 35.75 59 37 C 60.75 38.25 66 45 66 45 C 66 45 67.125 49.5 65 51 C 62.875 52.5 58.75 53 57 52 C 55.125 53.25 48 60.125 48 60.125 L 17.125 64.375 L 13.75 58.125 Z" fill="#ffffff"/>		<path id="Ellipse5" opacity="0.502" d="M 44 57.5 C 44 56.6716 44.6716 56 45.5 56 C 46.3284 56 47 56.6716 47 57.5 C 47 58.3284 46.3284 59 45.5 59 C 44.6716 59 44 58.3284 44 57.5 Z" stroke="#ffffff" stroke-width="1" fill="none"/>		<path id="Ellipse6" opacity="0.6" d="M 56 47.5 C 56 44.4624 58.4624 42 61.5 42 C 64.5376 42 67 44.4624 67 47.5 C 67 50.5376 64.5376 53 61.5 53 C 58.4624 53 56 50.5376 56 47.5 Z" fill="#ffffff"/>		<text x="80" y="22" text-anchor="left" id="oil_inner_text" style="font-size: 33px;" font-family="Myriad Pro"></text>	</g></svg>