<?xml version="1.0" encoding="utf-8"?>
<!-- Generator: Adobe Illustrator 15.0.2, SVG Export Plug-In . SVG Version: 6.00 Build 0)  -->
<!DOCTYPE svg PUBLIC "-//W3C//DTD SVG 1.1//EN" "http://www.w3.org/Graphics/SVG/1.1/DTD/svg11.dtd">
<svg version="1.1" id="Layer_1" xmlns="http://www.w3.org/2000/svg" xmlns:xlink="http://www.w3.org/1999/xlink" x="0px" y="0px"
	 width="50px" height="50px" viewBox="0 0 50 50" enable-background="new 0 0 50 50" xml:space="preserve">
<path fill="#58595A" d="M47.201,36.118"/>
<g>
	<path fill="#87B940" d="M42.647,7.749c-1.566-1.561-4.099-1.584-5.687-0.037c-1.604,1.563-1.639,4.13-0.078,5.735
		c0,0.001,0,0.001,0,0.002c2.903,2.985,4.693,7.058,4.693,11.551c0,1.463-0.192,2.881-0.547,4.232
		c-0.504,2.141,0.792,4.302,2.933,4.854c2.168,0.56,4.38-0.746,4.939-2.915c0,0,0.004,0,0.004,0
		c0.508-1.972,0.778-4.041,0.778-6.172C49.684,18.284,46.998,12.198,42.647,7.749z"/>
</g>
<g>
	<circle fill="#FFFFFF" cx="25" cy="25" r="8.443"/>
	<g>
		<path fill="#FFFFFF" d="M35.264,38.012c-0.001,0-0.003,0-0.003,0.001c-2.823,2.229-6.385,3.562-10.261,3.562
			c-9.155,0-16.576-7.421-16.576-16.577c0-9.154,7.421-16.576,16.576-16.576c0.811,0,1.607,0.062,2.387,0.173
			c2.203,0.294,4.237-1.24,4.55-3.445c0.315-2.2-1.201-4.237-3.391-4.579C27.389,0.407,26.205,0.316,25,0.316
			C11.367,0.316,0.316,11.368,0.316,25c0,13.633,11.051,24.685,24.684,24.685c5.797,0,11.123-2.004,15.334-5.349
			c1.715-1.396,2.001-3.913,0.625-5.654C39.572,36.924,37.021,36.625,35.264,38.012z"/>
	</g>
</g>
</svg>
