<?xml version="1.0" standalone="no"?><!-- Generator: Adobe Fireworks CS6, Export SVG Extension by Aaron Beall (http://fireworks.abeall.com) . Version: 0.6.1  --><!DOCTYPE svg PUBLIC "-//W3C//DTD SVG 1.1//EN" "http://www.w3.org/Graphics/SVG/1.1/DTD/svg11.dtd"><svg id="Simulator-Drive-Files.fw-OC%20Icons" viewBox="0 0 44 44" style="background-color:#ffffff00" version="1.1"	xmlns="http://www.w3.org/2000/svg" xmlns:xlink="http://www.w3.org/1999/xlink" xml:space="preserve"	x="0px" y="0px" width="44px" height="44px">	<path d="M 10 11 L 35 11 L 35 27 L 10 27 L 10 11 ZM 11 9 C 9.3431 9 8 10.3431 8 12 L 8 26 C 8 27.6569 9.3431 29 11 29 L 34 29 C 35.6569 29 37 27.6569 37 26 L 37 12 C 37 10.3431 35.6569 9 34 9 L 11 9 ZM 30 36 L 35 36 C 36.1046 36 37 35.1046 37 34 C 37 32.8954 36.1046 32 35 32 L 30 32 L 30 36 ZM 23 36 L 29 36 L 29 32 L 23 32 L 23 36 ZM 16 36 L 22 36 L 22 32 L 16 32 L 16 36 ZM 10 32 C 8.8954 32 8 32.8954 8 34 C 8 35.1046 8.8954 36 10 36 L 15 36 L 15 32 L 10 32 Z" fill="#999999"/></svg>