<?xml version="1.0" standalone="no"?><!-- Generator: Adobe Fireworks CS6, Export SVG Extension by Aaron Beall (http://fireworks.abeall.com) . Version: 0.6.1  --><!DOCTYPE svg PUBLIC "-//W3C//DTD SVG 1.1//EN" "http://www.w3.org/Graphics/SVG/1.1/DTD/svg11.dtd"><svg id="Simulator-Drive-Files.fw-OC%20Icons" viewBox="0 0 44 44" style="background-color:#ffffff00" version="1.1"	xmlns="http://www.w3.org/2000/svg" xmlns:xlink="http://www.w3.org/1999/xlink" xml:space="preserve"	x="0px" y="0px" width="44px" height="44px">	<path d="M 10 14 L 35 14 L 35 30 L 10 30 L 10 14 ZM 11 12 C 9.3431 12 8 13.3431 8 15 L 8 16 L 4 16 L 4 17 L 8 17 L 8 19 L 4 19 L 4 20 L 8 20 L 8 22 L 4 22 L 4 23 L 8 23 L 8 29 C 8 30.6569 9.3431 32 11 32 L 34 32 C 35.6569 32 37 30.6569 37 29 L 37 23 L 41 23 L 41 22 L 37 22 L 37 20 L 41 20 L 41 19 L 37 19 L 37 17 L 41 17 L 41 16 L 37 16 L 37 15 C 37 13.3431 35.6569 12 34 12 L 11 12 Z" fill="#999999"/></svg>